<mxfile host="app.diagrams.net" modified="2020-12-15T04:03:43.360Z" agent="5.0 (Windows NT 10.0; Win64; x64) AppleWebKit/537.36 (KHTML, like Gecko) Chrome/87.0.4280.88 Safari/537.36" etag="oiABLncbk5irCj2guki3" version="13.10.2" type="github">
  <diagram id="X80XuDM1KRZcs8Gzc-fh" name="Page-1">
    <mxGraphModel dx="1376" dy="834" grid="1" gridSize="10" guides="1" tooltips="1" connect="1" arrows="1" fold="1" page="1" pageScale="1" pageWidth="827" pageHeight="1169" math="0" shadow="0">
      <root>
        <mxCell id="0" />
        <mxCell id="1" parent="0" />
        <mxCell id="5vULzNjLKyb96BfEzUpu-2" value="pyhon" style="rounded=0;whiteSpace=wrap;html=1;align=left;fillColor=#dae8fc;strokeColor=#6c8ebf;" vertex="1" parent="1">
          <mxGeometry x="50" y="210" width="710" height="340" as="geometry" />
        </mxCell>
        <mxCell id="5vULzNjLKyb96BfEzUpu-3" value="pytorch" style="rounded=0;whiteSpace=wrap;html=1;align=left;fillColor=#d5e8d4;strokeColor=#82b366;" vertex="1" parent="1">
          <mxGeometry x="110" y="230" width="630" height="300" as="geometry" />
        </mxCell>
        <mxCell id="5vULzNjLKyb96BfEzUpu-4" value="model" style="rounded=0;whiteSpace=wrap;html=1;align=left;fillColor=#ffe6cc;strokeColor=#d79b00;" vertex="1" parent="1">
          <mxGeometry x="185" y="250" width="535" height="260" as="geometry" />
        </mxCell>
        <mxCell id="5vULzNjLKyb96BfEzUpu-6" value="pretrain" style="rounded=0;whiteSpace=wrap;html=1;fillColor=#f8cecc;strokeColor=#b85450;" vertex="1" parent="1">
          <mxGeometry x="280" y="260" width="120" height="240" as="geometry" />
        </mxCell>
        <mxCell id="5vULzNjLKyb96BfEzUpu-8" value="train" style="rounded=0;whiteSpace=wrap;html=1;align=left;fillColor=#f8cecc;strokeColor=#b85450;" vertex="1" parent="1">
          <mxGeometry x="550" y="260" width="120" height="240" as="geometry" />
        </mxCell>
        <mxCell id="5vULzNjLKyb96BfEzUpu-13" value="" style="shape=flexArrow;endArrow=classic;html=1;fillColor=#647687;strokeColor=#314354;" edge="1" parent="1">
          <mxGeometry width="50" height="50" relative="1" as="geometry">
            <mxPoint x="400" y="379.5" as="sourcePoint" />
            <mxPoint x="540" y="379.5" as="targetPoint" />
          </mxGeometry>
        </mxCell>
        <mxCell id="5vULzNjLKyb96BfEzUpu-14" value="parameters" style="edgeLabel;html=1;align=center;verticalAlign=middle;resizable=0;points=[];" vertex="1" connectable="0" parent="5vULzNjLKyb96BfEzUpu-13">
          <mxGeometry x="0.1429" y="2" relative="1" as="geometry">
            <mxPoint y="1" as="offset" />
          </mxGeometry>
        </mxCell>
        <mxCell id="5vULzNjLKyb96BfEzUpu-15" value="Bert" style="rounded=1;whiteSpace=wrap;html=1;fillColor=#a0522d;strokeColor=#6D1F00;fontColor=#ffffff;" vertex="1" parent="1">
          <mxGeometry x="294" y="300" width="86" height="50" as="geometry" />
        </mxCell>
        <mxCell id="5vULzNjLKyb96BfEzUpu-16" value="contrastive learning" style="rounded=1;whiteSpace=wrap;html=1;fillColor=#a0522d;strokeColor=#6D1F00;fontColor=#ffffff;" vertex="1" parent="1">
          <mxGeometry x="297" y="410" width="86" height="50" as="geometry" />
        </mxCell>
        <mxCell id="5vULzNjLKyb96BfEzUpu-17" value="transformer" style="rounded=0;whiteSpace=wrap;html=1;fillColor=#e1d5e7;strokeColor=#9673a6;" vertex="1" parent="1">
          <mxGeometry x="580" y="280" width="80" height="200" as="geometry" />
        </mxCell>
        <mxCell id="5vULzNjLKyb96BfEzUpu-18" value="encoder" style="rounded=0;whiteSpace=wrap;html=1;fillColor=#a0522d;strokeColor=#6D1F00;fontColor=#ffffff;" vertex="1" parent="1">
          <mxGeometry x="590" y="305" width="60" height="40" as="geometry" />
        </mxCell>
        <mxCell id="5vULzNjLKyb96BfEzUpu-19" value="decoder" style="rounded=0;whiteSpace=wrap;html=1;fillColor=#a0522d;strokeColor=#6D1F00;fontColor=#ffffff;" vertex="1" parent="1">
          <mxGeometry x="590" y="410" width="60" height="40" as="geometry" />
        </mxCell>
        <mxCell id="5vULzNjLKyb96BfEzUpu-24" value="" style="endArrow=none;dashed=1;html=1;dashPattern=1 3;strokeWidth=2;exitX=0;exitY=0.5;exitDx=0;exitDy=0;entryX=0;entryY=0.5;entryDx=0;entryDy=0;edgeStyle=orthogonalEdgeStyle;curved=1;" edge="1" parent="1" source="5vULzNjLKyb96BfEzUpu-8" target="5vULzNjLKyb96BfEzUpu-18">
          <mxGeometry width="50" height="50" relative="1" as="geometry">
            <mxPoint x="220" y="140" as="sourcePoint" />
            <mxPoint x="370" y="100" as="targetPoint" />
            <Array as="points">
              <mxPoint x="540" y="380" />
              <mxPoint x="540" y="310" />
              <mxPoint x="570" y="310" />
              <mxPoint x="570" y="325" />
            </Array>
          </mxGeometry>
        </mxCell>
      </root>
    </mxGraphModel>
  </diagram>
</mxfile>
